<svg width="599" height="125" viewBox="0 0 599 125" fill="none" xmlns="http://www.w3.org/2000/svg">
<rect width="599" height="125" fill="white"/>
<path d="M54.1708 53.0195C59.9976 53.0195 64.2766 47.4546 61.1265 42.5487C55.2087 33.3226 44.9208 27.2268 33.2308 27.2268C14.8765 27.2268 0 42.2375 0 60.7445C0 79.2516 14.8765 94.2806 33.2308 94.2806C44.9208 94.2806 55.2087 88.1848 61.1265 78.9587C64.2766 74.0528 59.9976 68.4878 54.1708 68.4878H53.9705C51.1846 68.4878 48.7264 70.1903 46.942 72.3503C43.6644 76.3044 38.7298 78.8122 33.2308 78.8122C23.3435 78.8122 15.3317 70.7211 15.3317 60.7628C15.3317 50.8046 23.3435 42.7134 33.2308 42.7134C38.7298 42.7134 43.6644 45.2213 46.942 49.1754C48.7264 51.3354 51.1846 53.0379 53.9705 53.0379H54.1708V53.0195Z" fill="black"/>
<path fill-rule="evenodd" clip-rule="evenodd" d="M269.539 96.0917C287.966 96.0917 302.897 81.081 302.897 62.5557C302.897 44.0303 287.966 29.0197 269.539 29.0197C251.111 29.0197 236.18 44.0303 236.18 62.5557C236.18 81.081 251.111 96.0917 269.539 96.0917ZM269.539 80.6234C279.462 80.6234 287.492 72.5323 287.492 62.574C287.492 52.6157 279.444 44.5246 269.539 44.5246C259.615 44.5246 251.585 52.6157 251.585 62.574C251.585 72.5323 259.615 80.6234 269.539 80.6234Z" fill="black"/>
<path fill-rule="evenodd" clip-rule="evenodd" d="M109.068 96.0906C127.495 96.0906 142.426 81.0799 142.426 62.5545C142.426 44.0292 127.495 29.0368 109.068 29.0368C90.6404 29.0368 75.7093 44.0475 75.7093 62.5729C75.7093 81.0982 90.6586 96.0906 109.068 96.0906ZM109.068 80.6223C118.991 80.6223 127.021 72.5311 127.021 62.5729C127.021 52.6146 118.973 44.5235 109.068 44.5235C99.1621 44.5235 91.1138 52.6146 91.1138 62.5729C91.1138 72.5311 99.1621 80.6223 109.068 80.6223Z" fill="black"/>
<path fill-rule="evenodd" clip-rule="evenodd" d="M189.313 96.0917C195.595 96.0917 201.458 94.3527 206.465 91.3139C206.229 96.6409 204.681 100.833 201.804 103.872C198.672 107.276 194.429 108.979 189.04 108.979C185.653 108.979 182.575 108.027 179.79 106.105C178.005 104.933 176.548 103.432 175.419 101.62C174.327 99.881 172.233 98.8742 170.321 99.643L160.707 103.506C158.922 104.219 157.994 106.251 158.904 107.954C159.56 109.18 160.361 110.388 161.29 111.615C163.019 113.885 165.204 115.935 167.808 117.766C170.412 119.688 173.453 121.207 176.931 122.342C180.5 123.569 184.524 124.173 189.04 124.173C194.083 124.173 198.636 123.349 202.714 121.683C206.884 120.109 210.435 117.802 213.403 114.745C216.353 111.78 218.665 108.119 220.304 103.743C221.961 99.4599 222.671 94.6272 222.671 89.2088V32.6442C222.671 30.6489 221.05 29.0197 219.066 29.0197H210.052C208.068 29.0197 206.447 30.6489 206.447 32.6442V33.651V33.7792C201.44 30.7587 195.576 29.0197 189.313 29.0197C170.886 29.0197 155.954 44.0303 155.954 62.5557C155.954 81.081 170.886 96.0917 189.313 96.0917ZM189.131 80.6234C199 80.6234 206.993 72.5323 206.993 62.574C206.993 52.6157 199 44.5246 189.131 44.5246C179.262 44.5246 171.268 52.6157 171.268 62.574C171.268 72.5323 179.262 80.6234 189.131 80.6234Z" fill="black"/>
<path d="M343.558 80.622C349.508 80.622 354.942 77.8453 359.861 72.292V36.592C359.147 36.354 356.886 35.878 353.078 35.164C351.888 34.926 351.293 34.1723 351.293 32.903V27.786H370.452V79.432C374.26 80.146 376.521 80.622 377.235 80.86C378.425 81.098 379.02 81.812 379.02 83.002V88.119H364.145C362.717 88.119 361.765 87.3653 361.289 85.858L360.456 79.432C354.744 85.858 348.08 89.071 340.464 89.071C334.038 89.071 329.04 86.9687 325.47 82.764C321.979 78.5593 320.234 73.0457 320.234 66.223V36.473C316.585 35.759 314.363 35.283 313.57 35.045C312.301 34.807 311.666 34.0533 311.666 32.784V27.786H330.944V66.104C330.944 70.864 331.975 74.434 334.038 76.814C336.18 79.2733 339.353 80.503 343.558 80.503V80.622ZM408.046 88.952C403.444 88.952 399.795 87.6033 397.098 84.906C394.559 82.3673 393.29 78.5593 393.29 73.482V36.592H386.031C385.317 36.592 384.761 36.4333 384.365 36.116C383.968 35.7987 383.77 35.2037 383.77 34.331V30.166L393.647 28.857L396.027 10.174C396.027 9.53933 396.265 9.06333 396.741 8.746C397.137 8.42867 397.693 8.27 398.407 8.27H403.762V28.976H421.017V36.711H403.762V72.887C403.762 75.505 404.357 77.409 405.547 78.599C406.737 79.789 408.363 80.384 410.426 80.384C411.298 80.384 412.29 80.2253 413.401 79.908C414.115 79.67 414.829 79.3527 415.543 78.956C415.781 78.7973 416.019 78.6387 416.257 78.48C416.495 78.3213 416.733 78.1627 416.971 78.004C417.605 77.6867 418.002 77.528 418.161 77.528C418.716 77.528 419.192 77.8453 419.589 78.48L422.683 83.478C420.541 85.3027 418.319 86.6513 416.019 87.524C413.401 88.476 410.743 88.952 408.046 88.952ZM440.209 14.101C439.575 13.4663 439.019 12.673 438.543 11.721C438.147 10.9277 437.948 9.97566 437.948 8.865C437.948 7.675 438.147 6.68333 438.543 5.88999C439.099 4.77933 439.654 3.94633 440.209 3.391C440.844 2.75633 441.637 2.201 442.589 1.725C443.383 1.32833 444.335 1.13 445.445 1.13C446.556 1.13 447.508 1.32833 448.301 1.725C449.253 2.201 450.047 2.75633 450.681 3.391C451.237 3.94633 451.792 4.77933 452.347 5.88999C452.823 6.842 453.061 7.83366 453.061 8.865C453.061 9.81699 452.823 10.769 452.347 11.721C451.871 12.673 451.316 13.4663 450.681 14.101C450.047 14.7357 449.253 15.291 448.301 15.767C447.508 16.1637 446.556 16.362 445.445 16.362C444.335 16.362 443.383 16.1637 442.589 15.767C441.637 15.291 440.844 14.7357 440.209 14.101ZM457.464 80.622C458.02 80.7013 458.456 80.979 458.773 81.455C459.091 81.8517 459.249 82.3277 459.249 82.883V88H431.522V82.883C431.522 82.3277 431.681 81.8517 431.998 81.455C432.316 80.979 432.752 80.7013 433.307 80.622L440.209 79.313V36.354L433.307 35.045C432.752 34.9657 432.316 34.7277 431.998 34.331C431.681 33.855 431.522 33.3393 431.522 32.784V27.786H450.681V79.313L457.464 80.622ZM494.362 80.622C495.631 80.86 496.266 81.6137 496.266 82.883V88H468.42V82.883C468.42 81.6137 469.054 80.86 470.324 80.622L476.988 79.313V8.984C473.338 8.27 471.117 7.79399 470.324 7.55599C469.054 7.318 468.42 6.604 468.42 5.414V0.296994H487.698V79.194C491.347 79.908 493.568 80.384 494.362 80.622ZM528.995 26.834C533.121 26.834 538.357 27.905 544.703 30.047V45.517H540.062C538.952 45.517 538.277 44.9617 538.039 43.851L537.325 35.997C533.597 35.1243 530.503 34.688 528.043 34.688H527.924C524.672 34.688 521.935 35.5607 519.713 37.306C517.571 38.972 516.5 40.7967 516.5 42.78C516.5 44.8427 516.976 46.35 517.928 47.302C519.515 49.1267 521.816 50.515 524.83 51.467L528.4 52.538C529.035 52.6967 530.304 53.0933 532.208 53.728L537.92 55.87C539.507 56.4253 541.173 57.4567 542.918 58.964C546.171 61.5027 547.797 64.9933 547.797 69.436C547.797 75.2273 545.854 79.8287 541.966 83.24C537.762 86.9687 532.446 88.833 526.02 88.833C519.436 88.833 512.93 87.762 506.504 85.62V69.912H510.788C511.74 69.912 512.335 70.388 512.573 71.34L513.287 78.956C516.461 80.5427 520.546 81.336 525.544 81.336C529.352 81.336 532.446 80.3443 534.826 78.361C536.889 76.5363 537.92 74.5133 537.92 72.292C537.92 69.9913 537.444 68.3253 536.492 67.294C535.382 66.0247 534.192 65.0727 532.922 64.438C531.177 63.5653 529.511 62.9307 527.924 62.534C522.054 60.63 518.365 59.3607 516.857 58.726C514.953 57.8533 513.168 56.7427 511.502 55.394C508.17 52.6173 506.504 48.8887 506.504 44.208C506.504 39.448 508.408 35.402 512.216 32.07C516.183 28.5793 521.776 26.834 528.995 26.834Z" fill="black"/>
</svg>
